<svg xmlns="http://www.w3.org/2000/svg" width="32" height="32" viewBox="0 0 32 32"><g transform="translate(-226.776 -1530.664)"><path fill="#2b4255" d="m 231.42188,517.29883 c -0.93275,0 -1.86648,0.35475 -2.57813,1.0664 -1.4233,1.4233 -1.4233,3.731 0,5.1543 1.0618,1.0594 2.66546,1.36011 4.03906,0.75781 l 4.10352,4.10547 1.87553,-0.69481 -0.0283,-1.24599 -4.07383,-4.03576 c 0.6029,-1.3749 0.29978,-2.97932 -0.76172,-4.04102 -0.71165,-0.71165 -1.64343,-1.0664 -2.57617,-1.0664 z m 0.55468,1.65039 1.43946,1.4375 -0.55664,1.99414 -1.99415,0.55664 -1.4375,-1.43945 0.55469,-1.99414 z" transform="translate(0 1020.362)"/><path fill="#2b4255" d="M 17.898593,15.429457 18,6.1230469 C 20.110456,5.2992094 21.499823,3.2655532 21.5,1 c -2.04e-4,-2.066786 -1.159065,-3.9589893 -3,-4.8984375 L 18.5,1.5 l -2.5,2 -2.5,-2 0,-5.3925781 C 11.660941,-2.9540892 10.502404,-1.0646774 10.5,1 10.5026,3.2634133 11.891536,5.2941291 14,6.1171875 l -0.101407,8.8246635 1.330711,1.15647 z" transform="scale(.65782) rotate(45 -2626.625 1617.235)"/><path fill="#576d7e" fill-rule="evenodd" d="m 238.77702,1544.5352 0,3.2076 -5.91299,3.3758 c -1.29055,0.7337 -2.08701,2.0989 -2.08701,3.5776 l 0,7.9676 12.92886,0 -2.85772,0 12.92886,0 0,-7.9676 c 0,-1.4787 -0.79646,-2.8439 -2.08701,-3.5776 l -5.91299,-3.3758 0,-3.2076"/><path fill="#4bbfeb" d="m 239.56004,1555.6638 5.45283,0 m 3.12736,0 1.63679,0 0,6.9999 -15,0 0,-6.9999 1.50472,0" color="#000" overflow="visible" style="isolation:auto;mix-blend-mode:normal"/><path fill="#78c8f0" style="line-height:normal;text-indent:0;text-align:start;text-decoration-line:none;text-decoration-style:solid;text-decoration-color:#000;text-transform:none;block-progression:tb;isolation:auto;mix-blend-mode:normal" d="M244.04688 535.30078l-.31446 1.25977a1.0001 1.0001 0 0 0-.0234.11914c-.17642 1.4339 1.05448 2.62304 2.39258 2.62304 1.38327 0 2.32372-1.13765 2.57617-2.28515l.42969-1.7168-.9668 0-1.09374 0-.31446 1.25977a1.0001 1.0001 0 0 0-.008.0254c-.10465.4757-.34431.71484-.62305.71484-.31825 0-.43147-.084-.40039-.37305l.40625-1.62695-1.09375 0-.96679 0zM235.37109 535.30078l.42969 1.7168c.25245 1.1475 1.19291 2.28515 2.57617 2.28515 1.3381 0 2.56901-1.18914 2.39258-2.62304a1.0001 1.0001 0 0 0-.0215-.11914l-.31446-1.25977-.87304 0-1.18946 0 .40625 1.62891c.0311.289-.0821.37304-.40039.37304-.27873 0-.5184-.23914-.62304-.71484a1.0001 1.0001 0 0 0-.006-.0273l-.31446-1.25977-1.15234 0-.91016 0z" color="#000" font-family="sans-serif" font-weight="400" overflow="visible" transform="translate(0 1020.362)" white-space="normal"/><path fill="#fcd062" fill-rule="evenodd" d="m 238.77702,1544.5352 0,3.2076 c 0.22298,2.6194 7.22298,2.6194 7,0 l 0,-3.2076"/><path fill="#4bbfeb" style="isolation:auto;mix-blend-mode:normal" d="M246.88896 1548.4149l-2.18724 8.7489c-.10679.8679.569 1.5 1.4 1.5.831 0 1.42145-.6884 1.6-1.5l1.79651-7.1861M237.58978 1548.4149l2.18724 8.7489c.10679.8679-.569 1.5-1.4 1.5-.831 0-1.42145-.6884-1.6-1.5l-1.79651-7.1861" color="#000" overflow="visible"/><path fill="#f8b84e" fill-rule="evenodd" d="m 238.77734,524.17383 0,1.06055 c 0.87908,0.96172 2.12945,1.57226 3.53516,1.57226 1.36584,0 2.5898,-0.57197 3.46484,-1.48633 l 0,-1.14648 -7,0 z" transform="translate(0 1020.362)"/><path fill="#fcd062" d="m 240.17136,1532.933 c -1.48219,0 -2.6754,1.202 -2.6754,2.695 l 0,2.3955 c 0,0.012 0.002,0.02 0.002,0.03 -6e-5,0.012 -0.002,0.02 -0.002,0.03 l 0,3.233 c 0,2.6876 2.14873,4.8521 4.81663,4.8521 2.66791,0 4.81664,-2.1645 4.81664,-4.8521 l 0,-3.233 c 0,-0.012 -0.002,-0.02 -0.002,-0.03 1.3e-4,-0.012 0.002,-0.02 0.002,-0.03 l 0,-3.5093 c -0.2184,-1.6688 -1.02598,-2.8594 -2.68073,-2.8514 -0.0513,0.7805 -0.875,1.2217 -1.60928,1.2702 z"/><circle cx="238.177" cy="1556.664" r=".5" fill="#2b4255" color="#000" overflow="visible" style="isolation:auto;mix-blend-mode:normal"/><circle style="isolation:auto;mix-blend-mode:normal" cx="-246.302" cy="1556.664" r=".5" fill="#2b4255" color="#000" overflow="visible" transform="scale(-1 1)"/><path fill="#2b4255" fill-rule="evenodd" d="m 237.50076,1539.1697 c 0.59848,0 2.28034,-1.5575 2.42288,-2.0866 1.6971,2.9241 5.80371,0.03 7.19365,2.4244 l 0.0116,-1.424 c 0,0 7.7e-4,-2.5001 0,-3.5693 -0.2184,-1.6688 -1.02598,-2.8594 -2.68073,-2.8514 -0.0513,0.7805 -0.875,1.2217 -1.60928,1.2702 l -2.66786,0 c -1.48219,0 -2.6754,1.202 -2.6754,2.695 l 0,2.3955 c 0,0.012 0.002,0.02 0.002,0.03 -6e-5,0.012 -0.002,0.8857 -0.002,0.8957 z"/></g></svg>